<?xml version="1.0" encoding="UTF-8"?>
<svg width="56px" height="65px" viewBox="0 0 56 65" version="1.1" xmlns="http://www.w3.org/2000/svg" xmlns:xlink="http://www.w3.org/1999/xlink">
    <!-- Generator: Sketch 44.1 (41455) - http://www.bohemiancoding.com/sketch -->
    <title>Combined Shape</title>
    <desc>Created with Sketch.</desc>
    <defs></defs>
    <g id="Page-1" stroke="none" stroke-width="1" fill="none" fill-rule="evenodd">
        <g id="Desktop-1440" transform="translate(-692.000000, -846.000000)" fill-rule="nonzero" fill="#FFFFFF">
            <path d="M732.046984,884.499992 L719.42577,896.077151 C716.984622,898.316362 716.819799,902.111765 719.057626,904.554422 C721.295453,906.997079 725.088512,907.162004 727.52966,904.922794 L749.907498,884.3961 C750.078242,884.23948 750.242103,884.07551 750.398618,883.904653 C753.382231,880.647633 753.162221,875.587105 749.907213,872.601649 L727.529446,852.077011 C725.08819,849.837918 721.29514,850.003027 719.05743,852.445792 C716.819721,854.888557 716.984728,858.683952 719.425984,860.923045 L732.048208,872.500008 L693.496286,872.500008 C690.184629,872.500008 687.5,875.186296 687.5,878.5 C687.5,881.813704 690.184629,884.499992 693.496286,884.499992 L732.046984,884.499992 Z" id="Combined-Shape" transform="translate(720.000000, 878.500000) rotate(-270.000000) translate(-720.000000, -878.500000) "></path>
        </g>
    </g>
</svg>