<?xml version="1.0" encoding="UTF-8"?>
<svg width="232px" height="33px" viewBox="0 0 232 33" version="1.1" xmlns="http://www.w3.org/2000/svg" xmlns:xlink="http://www.w3.org/1999/xlink">
    <!-- Generator: Sketch 44.1 (41455) - http://www.bohemiancoding.com/sketch -->
    <title>UX BASICS</title>
    <desc>Created with Sketch.</desc>
    <defs>
        <linearGradient x1="55.2583933%" y1="0%" x2="55.2583949%" y2="100%" id="linearGradient-1">
            <stop stop-color="#FFFFFF" offset="0%"></stop>
            <stop stop-color="#F2F2F2" offset="100%"></stop>
        </linearGradient>
        <path d="M3.43108229,27.6509695 C1.14368266,25.4182714 0,22.1551461 0,17.8614958 L0,0.343490305 L7.7684882,0.343490305 L7.7684882,18.1620499 C7.7684882,20.3374993 8.25761034,22.0119978 9.2358693,23.1855956 C10.2141283,24.3591933 11.6239509,24.9459834 13.4653795,24.9459834 C15.3068082,24.9459834 16.7166308,24.3591933 17.6948898,23.1855956 C18.6731487,22.0119978 19.1622709,20.3374993 19.1622709,18.1620499 L19.1622709,0.343490305 L26.9739174,0.343490305 L26.9739174,17.8614958 C26.9739174,22.1265218 25.8158488,25.3824911 23.4996768,27.6295014 C21.1835048,29.8765117 17.8387725,31 13.4653795,31 C9.06321422,31 5.71848192,29.8836677 3.43108229,27.6509695 Z M49.8382086,15.3282548 L61.4909409,30.6135734 L52.2119133,30.6135734 L45.3497487,21.0817175 L38.4444259,30.6135734 L29.2517149,30.6135734 L40.8612889,15.3282548 L29.4675062,0.343490305 L38.7033755,0.343490305 L45.3497487,9.61772853 L52.0824385,0.343490305 L61.2751495,0.343490305 L49.8382086,15.3282548 Z M99.6020891,17.6682825 C100.565962,18.9420655 101.047891,20.5235363 101.047891,22.4127424 C101.047891,25.0748056 100.177541,27.1071029 98.4368159,28.5096953 C96.6960904,29.9122877 94.2289007,30.6135734 91.0351729,30.6135734 L78.8645414,30.6135734 L78.8645414,0.343490305 L90.6035903,0.343490305 C93.7110011,0.343490305 96.113454,1.03046404 97.811021,2.40443213 C99.508588,3.77840022 100.357359,5.73913777 100.357359,8.2867036 C100.357359,9.91829071 99.9329734,11.3208621 99.0841899,12.4944598 C98.2354064,13.6680576 97.0485659,14.5410867 95.5236328,15.1135734 C97.2787445,15.5429384 98.6382163,16.3944996 99.6020891,17.6682825 Z M81.4971958,14.0831025 L90.2151659,14.0831025 C92.6608133,14.0831025 94.5166002,13.5821841 95.7825824,12.5803324 C97.0485646,11.5784807 97.6815462,10.1329734 97.6815462,8.24376731 C97.6815462,4.4939794 95.1927776,2.61911357 90.2151659,2.61911357 L81.4971958,2.61911357 L81.4971958,14.0831025 Z M96.5378521,26.8995845 C97.7606758,25.9406693 98.3720785,24.4736941 98.3720785,22.498615 C98.3720785,18.4339594 95.868924,16.401662 90.8625399,16.401662 L81.4971958,16.401662 L81.4971958,28.3379501 L90.8625399,28.3379501 C93.4232766,28.3379501 95.3150284,27.8584997 96.5378521,26.8995845 Z M131.896462,30.6135734 L128.400642,22.5415512 L112.0005,22.5415512 L108.504681,30.6135734 L105.78571,30.6135734 L118.99214,0.343490305 L121.409003,0.343490305 L134.615433,30.6135734 L131.896462,30.6135734 Z M112.993141,20.2229917 L127.408002,20.2229917 L120.200571,3.47783934 L112.993141,20.2229917 Z M143.755395,29.9909972 C141.913966,29.3469497 140.273968,28.352269 138.835352,27.0069252 L139.957467,24.9030471 C141.4824,26.2483908 143.014503,27.2001357 144.553823,27.7583102 C146.093142,28.3164848 147.941736,28.5955679 150.09966,28.5955679 C152.660397,28.5955679 154.65285,28.0731816 156.07708,27.0283934 C157.50131,25.9836051 158.213414,24.5166299 158.213414,22.6274238 C158.213414,21.5110748 157.868152,20.6022657 157.177616,19.9009695 C156.48708,19.1996733 155.609538,18.6558191 154.544962,18.2693906 C153.480386,17.8829621 152.056177,17.4893834 150.272293,17.0886427 C147.912963,16.5734046 146.006825,16.0438624 144.553823,15.5 C143.10082,14.9561376 141.870822,14.1332003 140.863791,13.0311634 C139.85676,11.9291265 139.353251,10.4478394 139.353251,8.58725762 C139.353251,6.86979751 139.799216,5.36704245 140.691158,4.07894737 C141.5831,2.79085229 142.84187,1.78901558 144.467506,1.0734072 C146.093142,0.357798823 147.99928,0 150.185977,0 C152.257584,0 154.178108,0.336330893 155.947605,1.00900277 C157.717103,1.68167465 159.249206,2.66204342 160.543961,3.9501385 L159.421846,6.05401662 C157.98323,4.76592154 156.530249,3.82848862 155.062861,3.24168975 C153.595472,2.65489088 151.969861,2.36149584 150.185977,2.36149584 C147.62524,2.36149584 145.625594,2.90535006 144.186977,3.99307479 C142.748361,5.08079953 142.029064,6.59786654 142.029064,8.54432133 C142.029064,10.2331571 142.654853,11.485453 143.906449,12.3012465 C145.158045,13.1170401 146.992253,13.8111698 149.409128,14.3836565 L150.531243,14.6412742 C152.861801,15.2137609 154.703202,15.7433032 156.055501,16.2299169 C157.4078,16.7165306 158.551483,17.4679081 159.486583,18.484072 C160.421684,19.5002359 160.889227,20.8670274 160.889227,22.5844875 C160.889227,24.244699 160.443263,25.7045182 159.551321,26.9639889 C158.659379,28.2234597 157.400609,29.2038284 155.774972,29.9051247 C154.149336,30.6064209 152.257584,30.9570637 150.09966,30.9570637 C147.711557,30.9570637 145.596823,30.6350448 143.755395,29.9909972 Z M168.043909,30.6135734 L168.043909,0.343490305 L170.719721,0.343490305 L170.719721,30.6135734 L168.043909,30.6135734 Z M185.081834,29.0893352 C183.010227,27.8441766 181.413387,26.0551825 180.291266,23.7222992 C179.169146,21.3894159 178.608094,18.6343649 178.608094,15.4570637 C178.608094,12.2797625 179.169146,9.52471157 180.291266,7.19182825 C181.413387,4.85894494 183.010227,3.0771068 185.081834,1.84626039 C187.153441,0.615413975 189.599052,0 192.418739,0 C194.519119,0 196.446836,0.329174917 198.201947,0.987534626 C199.957059,1.64589434 201.481969,2.63341909 202.776724,3.9501385 L201.654609,6.05401662 C200.215993,4.7372972 198.770205,3.79270831 197.317203,3.22022161 C195.864201,2.6477349 194.245782,2.36149584 192.461898,2.36149584 C188.951674,2.36149584 186.225538,3.50645208 184.283406,5.79639889 C182.341274,8.08634571 181.370223,11.3065351 181.370223,15.4570637 C181.370223,19.6362166 182.334081,22.870718 184.261827,25.1606648 C186.189572,27.4506116 188.922902,28.5955679 192.461898,28.5955679 C194.245782,28.5955679 195.864201,28.3093288 197.317203,27.7368421 C198.770205,27.1643554 200.215993,26.2197665 201.654609,24.9030471 L202.776724,27.0069252 C201.481969,28.3236446 199.957059,29.3111694 198.201947,29.9695291 C196.446836,30.6278888 194.519119,30.9570637 192.418739,30.9570637 C189.599052,30.9570637 187.153441,30.3344938 185.081834,29.0893352 Z M212.866168,29.9909972 C211.024739,29.3469497 209.384741,28.352269 207.946125,27.0069252 L209.06824,24.9030471 C210.593173,26.2483908 212.125276,27.2001357 213.664596,27.7583102 C215.203915,28.3164848 217.052509,28.5955679 219.210433,28.5955679 C221.77117,28.5955679 223.763623,28.0731816 225.187853,27.0283934 C226.612083,25.9836051 227.324187,24.5166299 227.324187,22.6274238 C227.324187,21.5110748 226.978925,20.6022657 226.288389,19.9009695 C225.597853,19.1996733 224.720311,18.6558191 223.655735,18.2693906 C222.591159,17.8829621 221.16695,17.4893834 219.383066,17.0886427 C217.023736,16.5734046 215.117598,16.0438624 213.664596,15.5 C212.211593,14.9561376 210.981595,14.1332003 209.974564,13.0311634 C208.967532,11.9291265 208.464024,10.4478394 208.464024,8.58725762 C208.464024,6.86979751 208.909989,5.36704245 209.801931,4.07894737 C210.693873,2.79085229 211.952643,1.78901558 213.578279,1.0734072 C215.203915,0.357798823 217.110053,0 219.29675,0 C221.368357,0 223.288881,0.336330893 225.058378,1.00900277 C226.827876,1.68167465 228.359979,2.66204342 229.654734,3.9501385 L228.532619,6.05401662 C227.094003,4.76592154 225.641022,3.82848862 224.173634,3.24168975 C222.706245,2.65489088 221.080634,2.36149584 219.29675,2.36149584 C216.736013,2.36149584 214.736366,2.90535006 213.29775,3.99307479 C211.859134,5.08079953 211.139837,6.59786654 211.139837,8.54432133 C211.139837,10.2331571 211.765626,11.485453 213.017222,12.3012465 C214.268818,13.1170401 216.103026,13.8111698 218.519901,14.3836565 L219.642016,14.6412742 C221.972574,15.2137609 223.813975,15.7433032 225.166274,16.2299169 C226.518573,16.7165306 227.662256,17.4679081 228.597356,18.484072 C229.532457,19.5002359 230,20.8670274 230,22.5844875 C230,24.244699 229.554036,25.7045182 228.662094,26.9639889 C227.770152,28.2234597 226.511381,29.2038284 224.885745,29.9051247 C223.260109,30.6064209 221.368357,30.9570637 219.210433,30.9570637 C216.82233,30.9570637 214.707596,30.6350448 212.866168,29.9909972 Z" id="path-2"></path>
        <filter x="-0.9%" y="-3.2%" width="101.7%" height="112.9%" filterUnits="objectBoundingBox" id="filter-3">
            <feOffset dx="0" dy="1" in="SourceAlpha" result="shadowOffsetOuter1"></feOffset>
            <feGaussianBlur stdDeviation="0.5" in="shadowOffsetOuter1" result="shadowBlurOuter1"></feGaussianBlur>
            <feColorMatrix values="0 0 0 0 0   0 0 0 0 0   0 0 0 0 0  0 0 0 0.273890399 0" type="matrix" in="shadowBlurOuter1"></feColorMatrix>
        </filter>
    </defs>
    <g id="Page-1" stroke="none" stroke-width="1" fill="none" fill-rule="evenodd">
        <g id="Desktop-HD" transform="translate(-212.000000, -254.000000)">
            <g id="Group" transform="translate(213.000000, 254.000000)">
                <g id="UX-BASICS">
                    <use fill="black" fill-opacity="1" filter="url(#filter-3)" xlink:href="#path-2"></use>
                    <use fill="url(#linearGradient-1)" fill-rule="evenodd" xlink:href="#path-2"></use>
                </g>
            </g>
        </g>
    </g>
</svg>