<?xml version="1.0" encoding="UTF-8"?>
<svg width="952px" height="270px" viewBox="0 0 952 270" version="1.1" xmlns="http://www.w3.org/2000/svg" xmlns:xlink="http://www.w3.org/1999/xlink">
    <!-- Generator: Sketch 44.1 (41455) - http://www.bohemiancoding.com/sketch -->
    <title>Group 9</title>
    <desc>Created with Sketch.</desc>
    <defs>
        <filter x="-1.7%" y="-0.9%" width="103.9%" height="103.8%" filterUnits="objectBoundingBox" id="filter-1">
            <feOffset dx="0" dy="1" in="SourceAlpha" result="shadowOffsetOuter1"></feOffset>
            <feGaussianBlur stdDeviation="0.5" in="shadowOffsetOuter1" result="shadowBlurOuter1"></feGaussianBlur>
            <feColorMatrix values="0 0 0 0 0   0 0 0 0 0   0 0 0 0 0  0 0 0 0.5 0" type="matrix" in="shadowBlurOuter1" result="shadowMatrixOuter1"></feColorMatrix>
            <feMerge>
                <feMergeNode in="shadowMatrixOuter1"></feMergeNode>
                <feMergeNode in="SourceGraphic"></feMergeNode>
            </feMerge>
        </filter>
        <filter x="-1.7%" y="-0.9%" width="103.5%" height="103.5%" filterUnits="objectBoundingBox" id="filter-2">
            <feOffset dx="0" dy="1" in="SourceAlpha" result="shadowOffsetOuter1"></feOffset>
            <feGaussianBlur stdDeviation="0.5" in="shadowOffsetOuter1" result="shadowBlurOuter1"></feGaussianBlur>
            <feColorMatrix values="0 0 0 0 0   0 0 0 0 0   0 0 0 0 0  0 0 0 0.5 0" type="matrix" in="shadowBlurOuter1" result="shadowMatrixOuter1"></feColorMatrix>
            <feMerge>
                <feMergeNode in="shadowMatrixOuter1"></feMergeNode>
                <feMergeNode in="SourceGraphic"></feMergeNode>
            </feMerge>
        </filter>
        <filter x="-1.7%" y="-0.9%" width="103.5%" height="103.5%" filterUnits="objectBoundingBox" id="filter-3">
            <feOffset dx="0" dy="1" in="SourceAlpha" result="shadowOffsetOuter1"></feOffset>
            <feGaussianBlur stdDeviation="0.5" in="shadowOffsetOuter1" result="shadowBlurOuter1"></feGaussianBlur>
            <feColorMatrix values="0 0 0 0 0   0 0 0 0 0   0 0 0 0 0  0 0 0 0.5 0" type="matrix" in="shadowBlurOuter1" result="shadowMatrixOuter1"></feColorMatrix>
            <feMerge>
                <feMergeNode in="shadowMatrixOuter1"></feMergeNode>
                <feMergeNode in="SourceGraphic"></feMergeNode>
            </feMerge>
        </filter>
        <filter x="-1.7%" y="-0.9%" width="103.9%" height="103.8%" filterUnits="objectBoundingBox" id="filter-4">
            <feOffset dx="0" dy="1" in="SourceAlpha" result="shadowOffsetOuter1"></feOffset>
            <feGaussianBlur stdDeviation="0.5" in="shadowOffsetOuter1" result="shadowBlurOuter1"></feGaussianBlur>
            <feColorMatrix values="0 0 0 0 0   0 0 0 0 0   0 0 0 0 0  0 0 0 0.5 0" type="matrix" in="shadowBlurOuter1" result="shadowMatrixOuter1"></feColorMatrix>
            <feMerge>
                <feMergeNode in="shadowMatrixOuter1"></feMergeNode>
                <feMergeNode in="SourceGraphic"></feMergeNode>
            </feMerge>
        </filter>
        <filter x="-1.7%" y="-0.9%" width="103.9%" height="103.8%" filterUnits="objectBoundingBox" id="filter-5">
            <feOffset dx="0" dy="1" in="SourceAlpha" result="shadowOffsetOuter1"></feOffset>
            <feGaussianBlur stdDeviation="0.5" in="shadowOffsetOuter1" result="shadowBlurOuter1"></feGaussianBlur>
            <feColorMatrix values="0 0 0 0 0   0 0 0 0 0   0 0 0 0 0  0 0 0 0.5 0" type="matrix" in="shadowBlurOuter1" result="shadowMatrixOuter1"></feColorMatrix>
            <feMerge>
                <feMergeNode in="shadowMatrixOuter1"></feMergeNode>
                <feMergeNode in="SourceGraphic"></feMergeNode>
            </feMerge>
        </filter>
        <filter x="-1.7%" y="-0.9%" width="103.9%" height="103.8%" filterUnits="objectBoundingBox" id="filter-6">
            <feOffset dx="0" dy="1" in="SourceAlpha" result="shadowOffsetOuter1"></feOffset>
            <feGaussianBlur stdDeviation="0.5" in="shadowOffsetOuter1" result="shadowBlurOuter1"></feGaussianBlur>
            <feColorMatrix values="0 0 0 0 0   0 0 0 0 0   0 0 0 0 0  0 0 0 0.5 0" type="matrix" in="shadowBlurOuter1" result="shadowMatrixOuter1"></feColorMatrix>
            <feMerge>
                <feMergeNode in="shadowMatrixOuter1"></feMergeNode>
                <feMergeNode in="SourceGraphic"></feMergeNode>
            </feMerge>
        </filter>
    </defs>
    <g id="Page-1" stroke="none" stroke-width="1" fill="none" fill-rule="evenodd">
        <g id="Desktop-1440" transform="translate(-207.000000, -1054.000000)">
            <g id="Group-9" transform="translate(208.000000, 1054.000000)">
                <g id="Group">
                    <g id="discover-icon" filter="url(#filter-1)">
                        <g id="icon_binocular_white" transform="translate(31.818182, 35.669151)" fill="#3ED17F">
                            <g id="Group-5">
                                <path d="M12.3588517,35.581947 C17.720852,35.581947 22.0780681,31.1996032 22.0780681,25.7809985 C22.0780681,20.3623938 17.720852,15.98005 12.3588517,15.98005 C6.99685134,15.98005 2.63963526,20.3623938 2.63963526,25.7809985 C2.63963526,31.1996032 6.99685134,35.581947 12.3588517,35.581947 Z M12.3588517,38.2111228 C5.53324637,38.2111228 0,32.6459666 0,25.7809985 C0,18.9160304 5.53324637,13.3508742 12.3588517,13.3508742 C19.184457,13.3508742 24.7177033,18.9160304 24.7177033,25.7809985 C24.7177033,32.6459666 19.184457,38.2111228 12.3588517,38.2111228 Z" id="Oval-3" fill-rule="nonzero"></path>
                                <path d="M39.8229665,35.581947 C45.1849668,35.581947 49.5421829,31.1996032 49.5421829,25.7809985 C49.5421829,20.3623938 45.1849668,15.98005 39.8229665,15.98005 C34.4609662,15.98005 30.1037501,20.3623938 30.1037501,25.7809985 C30.1037501,31.1996032 34.4609662,35.581947 39.8229665,35.581947 Z M39.8229665,38.2111228 C32.9973612,38.2111228 27.4641148,32.6459666 27.4641148,25.7809985 C27.4641148,18.9160304 32.9973612,13.3508742 39.8229665,13.3508742 C46.6485718,13.3508742 52.1818182,18.9160304 52.1818182,25.7809985 C52.1818182,32.6459666 46.6485718,38.2111228 39.8229665,38.2111228 Z" id="Oval-3-Copy" fill-rule="nonzero"></path>
                                <rect id="Rectangle-11" x="22.8867624" y="12.4301243" width="6.40829346" height="17.494249" rx="3.20414673"></rect>
                                <path d="M37.400058,4.11243656 L37.6947806,4.11243656 L37.6947806,4.11243656 C40.9823897,4.11243656 43.7246593,6.62530561 44.011139,9.90040911 L45.3887147,25.6491819 L38.0617288,16.7111202 L25.8565916,15.8320151 L29.5850669,10.3570174 L31.757623,9.62632286 L31.757623,9.62632286 L31.757623,9.62632286 C31.8282785,6.56074933 34.3336703,4.11243656 37.400058,4.11243656 Z" id="Rectangle-11-Copy" transform="translate(35.622653, 14.880809) rotate(-34.000000) translate(-35.622653, -14.880809) "></path>
                                <path d="M18.4276744,4.01083903 L18.722397,4.01083903 L18.722397,4.01083903 C22.0235549,4.01083903 24.7904112,6.50645965 25.1298024,9.7901249 L26.7633164,25.5946381 L19.0893452,16.6095227 L6.88420805,15.7304176 L10.6126833,10.2554198 L12.7852394,9.52472533 L12.7852394,9.52472533 L12.7852394,9.52472533 C12.8558949,6.45915179 15.3612867,4.01083903 18.4276744,4.01083903 Z" id="Rectangle-11-Copy-2" transform="translate(16.823762, 14.802739) scale(-1, 1) rotate(-34.000000) translate(-16.823762, -14.802739) "></path>
                            </g>
                            <path d="M46.3351025,21.7034518 C48.6806075,26.9450902 47.3387674,30.8818528 42.3095823,33.5137395 C44.0283006,31.1864507 45.1170146,29.3499127 45.5757244,28.0041254 C46.0344341,26.6583382 46.2875601,24.5581136 46.3351025,21.7034518 Z" id="Path-6"></path>
                            <path d="M18.5988207,21.7034518 C20.9443257,26.9450902 19.6024857,30.8818528 14.5733006,33.5137395 C16.2920189,31.1864507 17.3807329,29.3499127 17.8394426,28.0041254 C18.2981523,26.6583382 18.5512784,24.5581136 18.5988207,21.7034518 Z" id="Path-6-Copy"></path>
                        </g>
                        <ellipse id="Oval-4" stroke="#3ED17F" stroke-width="3.43462898" cx="57.2727273" cy="57.3254215" rx="55.5554128" ry="55.608107"></ellipse>
                    </g>
                    <g id="research-icon" filter="url(#filter-2)" transform="translate(152.727273, 0.000000)">
                        <g id="icon_research-copy" transform="translate(38.181818, 31.847456)" fill="#2BC3A6">
                            <path d="M17.7211094,33.4367961 C26.1100509,33.4367961 32.9106317,26.5274899 32.9106317,18.0044287 C32.9106317,9.48136748 26.1100509,2.57206124 17.7211094,2.57206124 C9.33216785,2.57206124 2.53158706,9.48136748 2.53158706,18.0044287 C2.53158706,26.5274899 9.33216785,33.4367961 17.7211094,33.4367961 Z M17.7211094,36.0088573 C7.93401093,36.0088573 0,27.9480001 0,18.0044287 C0,8.06085729 7.93401093,0 17.7211094,0 C27.5082079,0 35.4422188,8.06085729 35.4422188,18.0044287 C35.4422188,27.9480001 27.5082079,36.0088573 17.7211094,36.0088573 Z" id="Oval-2" fill-rule="nonzero"></path>
                            <rect id="Rectangle-7" x="9.36209553" y="10.8705984" width="14.5862564" height="2.61519824" rx="1.30759912"></rect>
                            <rect id="Rectangle-7-Copy" x="10.6995378" y="16.9853101" width="18.0183168" height="2.61519824" rx="1.30759912"></rect>
                            <rect id="Rectangle-7-Copy-2" x="7.3559322" y="23.1000217" width="18.0183168" height="2.61519824" rx="1.30759912"></rect>
                            <path d="M24.8751649,35.3172228 L33.4318424,49.120148 C34.1593245,50.293662 35.7003863,50.6552423 36.8739003,49.9277602 C38.0474143,49.2002781 38.4089946,47.6592163 37.6815125,46.4857023 L29.1248351,32.6827772 C28.397353,31.5092632 26.8562912,31.1476829 25.6827772,31.8751649 C24.5092632,32.602647 24.1476829,34.1437088 24.8751649,35.3172228 Z" id="Path-5" fill-rule="nonzero"></path>
                        </g>
                        <ellipse id="Oval-4-Copy" stroke="#2BC3A6" stroke-width="3.43462898" cx="57.2727273" cy="57.3254215" rx="55.5554128" ry="55.608107"></ellipse>
                    </g>
                    <g id="define-icon" filter="url(#filter-3)" transform="translate(305.454545, 0.000000)">
                        <g id="icon_define-copy" transform="translate(36.909091, 38.216948)" fill="#F0C830">
                            <g id="Group-4">
                                <path d="M2.60218691,2.58222619 L2.60218691,35.6347215 L35.9101793,35.6347215 L35.9101793,2.58222619 L2.60218691,2.58222619 Z M2.60218691,0 L35.9101793,0 C37.3473275,0 38.5123662,1.15610205 38.5123662,2.58222619 L38.5123662,35.6347215 C38.5123662,37.0608456 37.3473275,38.2169476 35.9101793,38.2169476 L2.60218691,38.2169476 C1.16503876,38.2169476 0,37.0608456 0,35.6347215 L0,2.58222619 C0,1.15610205 1.16503876,0 2.60218691,0 Z" id="Rectangle-9" fill-rule="nonzero"></path>
                                <g id="Group-3" transform="translate(7.286123, 8.779569)">
                                    <rect id="Rectangle-10" x="0" y="0" width="3.12262429" height="3.09867143" rx="0.763250883"></rect>
                                    <rect id="Rectangle-10-Copy-3" x="6.24524858" y="0" width="18.2153084" height="3.09867143" rx="0.763250883"></rect>
                                    <rect id="Rectangle-10-Copy-4" x="6.24524858" y="6.19734286" width="18.2153084" height="3.09867143" rx="0.763250883"></rect>
                                    <rect id="Rectangle-10-Copy-5" x="6.24524858" y="12.3946857" width="18.2153084" height="3.09867143" rx="0.763250883"></rect>
                                    <rect id="Rectangle-10-Copy" x="0" y="6.19734286" width="3.12262429" height="3.09867143" rx="0.763250883"></rect>
                                    <rect id="Rectangle-10-Copy-2" x="0" y="12.3946857" width="3.12262429" height="3.09867143" rx="0.763250883"></rect>
                                </g>
                            </g>
                            <g id="Pencil" transform="translate(33.482081, 22.558951) rotate(-270.000000) translate(-33.482081, -22.558951) translate(20.118445, 9.819969)">
                                <path d="M8.67264379,-0.66090219 C9.9818766,-1.10844781 10.9671585,-1.33222062 11.6284895,-1.33222062 C12.2865049,-1.33222062 13.2071628,-1.11068601 14.3904633,-0.667616802 L14.3904633,-0.667616804 C14.5918718,-0.59220241 14.7253347,-0.399717203 14.7253347,-0.184652786 L14.7253347,22.8760993 L14.7253347,22.8760993 C14.7253347,23.1609181 14.4944435,23.3918094 14.2096247,23.3918094 C14.1466963,23.3918094 14.0842993,23.3802922 14.0255176,23.3578269 C13.6856696,23.2279435 13.412906,23.1630018 13.2072268,23.1630018 C12.9149141,23.1630018 12.4758001,23.294173 11.8898849,23.5565153 L11.8898849,23.5565153 C11.7380885,23.6244818 11.5628308,23.6150688 11.4191876,23.5312342 C10.9148765,23.236903 10.4965419,23.0897374 10.1641837,23.0897374 C9.89782729,23.0897374 9.51769976,23.1842566 9.02380111,23.373295 L9.02380111,23.373295 C8.75780059,23.4751059 8.45963047,23.342004 8.35781951,23.0760035 C8.3352946,23.0171529 8.323746,22.9546724 8.323746,22.8916584 L8.323746,-0.172915999 L8.32374601,-0.172915999 C8.32374601,-0.393444983 8.46397014,-0.589569591 8.67264379,-0.66090219 Z" id="Rectangle-2-Copy" transform="translate(11.524540, 11.134154) rotate(-45.000000) translate(-11.524540, -11.134154) "></path>
                                <path d="M23.6318409,21.0380623 L24.7264246,23.190811 L24.7264246,23.190811 C24.8555146,23.4446959 24.7543483,23.7551583 24.5004635,23.8842483 C24.471541,23.8989542 24.4412951,23.9108978 24.4101283,23.9199201 C23.8814255,24.0729721 23.4638067,24.1494981 23.1572717,24.1494981 C22.8525785,24.1494981 22.4435251,24.0738889 21.9301115,23.9226706 L21.9301115,23.9226706 C21.656897,23.8421994 21.5006478,23.5554806 21.581119,23.2822661 C21.5900598,23.2519104 21.6017756,23.2224421 21.6161182,23.1942341 L22.7124425,21.0380623 L22.7124425,21.0380623 C22.8415324,20.7841775 23.1519949,20.6830112 23.4058797,20.8121012 C23.5032249,20.8615971 23.5823449,20.9407172 23.6318409,21.0380623 Z" id="Triangle-4" transform="translate(23.171257, 22.456684) rotate(-225.000000) translate(-23.171257, -22.456684) "></path>
                            </g>
                        </g>
                        <ellipse id="Oval-4-Copy-2" stroke="#F0C830" stroke-width="3.43462898" cx="57.2727273" cy="57.3254215" rx="55.5554128" ry="55.608107"></ellipse>
                    </g>
                    <g id="design-icon" filter="url(#filter-4)" transform="translate(0.000000, 152.867791)">
                        <g id="icon_design-copy" transform="translate(38.181818, 38.216948)" fill="#E28633">
                            <path d="M14.5125921,2.86356741 L14.5125921,35.6209511 L25.7204751,35.6209511 L25.7204751,2.86356741 L14.5125921,2.86356741 Z M14.5125921,0.878271427 L25.7204751,0.878271427 C26.8159159,0.878271427 27.7039462,1.76711871 27.7039462,2.86356741 L27.7039462,35.6209511 C27.7039462,36.7173998 26.8159159,37.6062471 25.7204751,37.6062471 L14.5125921,37.6062471 C13.4171513,37.6062471 12.529121,36.7173998 12.529121,35.6209511 L12.529121,2.86356741 C12.529121,1.76711871 13.4171513,0.878271427 14.5125921,0.878271427 Z" id="Rectangle-2" fill-rule="nonzero" transform="translate(20.116534, 19.242259) rotate(45.000000) translate(-20.116534, -19.242259) "></path>
                            <path d="M9.401202,21.5475159 L13.2033294,25.2782088 C13.5984053,25.6658619 14.2389498,25.6658619 14.6340256,25.2782088 C15.0291015,24.8905556 15.0291015,24.2620457 14.6340256,23.8743925 L10.8318982,20.1436997 C10.4368224,19.7560465 9.79627785,19.7560465 9.401202,20.1436997 C9.00612614,20.5313528 9.00612614,21.1598628 9.401202,21.5475159 Z" id="Line" fill-rule="nonzero"></path>
                            <path d="M24.5760272,6.65779607 L28.3781546,10.3884889 C28.7732304,10.7761421 29.413775,10.7761421 29.8088508,10.3884889 C30.2039267,10.0008358 30.2039267,9.37232583 29.8088508,8.98467268 L26.0067234,5.25397982 C25.6116476,4.86632667 24.971103,4.86632667 24.5760272,5.25397982 C24.1809513,5.64163297 24.1809513,6.27014292 24.5760272,6.65779607 Z" id="Line-Copy-2" fill-rule="nonzero"></path>
                            <path d="M5.86040946,24.5254599 L9.66253686,28.2561528 C10.0576127,28.6438059 10.6981572,28.6438059 11.0932331,28.2561528 C11.488309,27.8684996 11.488309,27.2399897 11.0932331,26.8523365 L7.29110569,23.1216437 C6.89602984,22.7339905 6.25548531,22.7339905 5.86040946,23.1216437 C5.4653336,23.5092968 5.4653336,24.1378068 5.86040946,24.5254599 Z" id="Line-Copy" fill-rule="nonzero"></path>
                            <path d="M21.0352346,9.63574004 L24.837362,13.3664329 C25.2324379,13.7540861 25.8729824,13.7540861 26.2680583,13.3664329 C26.6631341,12.9787798 26.6631341,12.3502698 26.2680583,11.9626167 L22.4659309,8.23192379 C22.070855,7.84427064 21.4303105,7.84427064 21.0352346,8.23192379 C20.6401588,8.61957695 20.6401588,9.24808689 21.0352346,9.63574004 Z" id="Line-Copy-3" fill-rule="nonzero"></path>
                            <g id="Pencil">
                                <path d="M13.0267047,-0.950195851 C15.1158902,-1.6743984 16.6797201,-2.03649967 17.7181942,-2.03649967 C18.7536207,-2.03649967 20.21676,-1.67652065 22.1076122,-0.956562601 L22.1076122,-0.956562609 C22.2998319,-0.883373333 22.4268706,-0.699066271 22.4268706,-0.493384299 L22.4268706,35.118206 L22.4268706,35.118206 C22.4268706,35.391928 22.2049751,35.6138234 21.9312531,35.6138234 C21.863932,35.6138234 21.7973166,35.6001083 21.7354707,35.5735146 C21.0422175,35.2754162 20.503269,35.126367 20.1186251,35.126367 C19.6524432,35.126367 18.9406966,35.3453059 17.9833853,35.7831838 L17.9833853,35.7831838 C17.8345775,35.851249 17.6617639,35.8414767 17.5215782,35.7570693 C16.7001853,35.2624992 16.023577,35.0152141 15.4917535,35.0152141 C15.0209882,35.0152141 14.3164816,35.2089775 13.3782338,35.5965043 L13.3782338,35.5965043 C13.1252421,35.700998 12.8354429,35.5806167 12.7309492,35.327625 C12.706167,35.2676244 12.6934136,35.2033395 12.6934136,35.1384224 L12.6934136,-0.481915234 L12.6934137,-0.481915234 C12.6934137,-0.693069649 12.8271969,-0.881037784 13.0267047,-0.950195851 Z" id="Rectangle-2-Copy" transform="translate(17.560142, 16.929150) rotate(-45.000000) translate(-17.560142, -16.929150) "></path>
                                <path d="M35.7941807,31.7058737 L37.8713837,35.7822265 L37.8713838,35.7822265 C37.9956603,36.0261098 37.8986999,36.3245623 37.6548166,36.4488389 C37.6297685,36.4616027 37.6036798,36.4722123 37.5768329,36.4805527 C36.6092307,36.7811528 35.8602803,36.9314529 35.3299815,36.9314529 C34.8012483,36.9314529 34.0658326,36.7820389 33.1237346,36.483211 L33.1237346,36.483211 C32.8628235,36.4004515 32.7184031,36.1218515 32.8011626,35.8609404 C32.809365,35.8350811 32.8196768,35.8099388 32.8319941,35.7857671 L34.9110013,31.7058737 L34.9110013,31.7058737 C35.0352778,31.4619904 35.3337303,31.36503 35.5776136,31.4893066 C35.6708566,31.5368208 35.7466665,31.6126307 35.7941807,31.7058737 Z" id="Triangle-4" transform="translate(35.352591, 34.192061) rotate(-225.000000) translate(-35.352591, -34.192061) "></path>
                            </g>
                        </g>
                        <ellipse id="Oval-4-Copy-3" stroke="#E28633" stroke-width="3.43462898" cx="57.2727273" cy="57.3254215" rx="55.5554128" ry="55.608107"></ellipse>
                    </g>
                    <g id="production-icon" filter="url(#filter-5)" transform="translate(152.727273, 152.867791)">
                        <g id="icon_production-copy" transform="translate(33.090909, 38.216948)" fill="#E55749">
                            <path d="M18.5788508,32.9351213 L28.2000605,32.9351213 L28.2000605,32.9351213 C28.4635833,32.9351213 28.6847141,33.133795 28.7128275,33.395814 C28.83114,34.4984968 29.0113507,35.3230485 29.2534593,35.8694693 C29.4415786,36.2940402 29.7752258,36.794798 30.2544009,37.3717428 L30.2544009,37.3717428 C30.4363759,37.5908474 30.4062763,37.9159867 30.1871717,38.0979617 C30.0945885,38.1748556 29.9780276,38.2169476 29.8576768,38.2169476 L17.2639633,38.2169476 L17.2639633,38.2169477 C16.9791445,38.2169477 16.7482532,37.9860564 16.7482532,37.7012376 C16.7482532,37.615198 16.76978,37.5305256 16.8108727,37.4549333 C17.1784887,36.7786832 17.4255563,36.2501952 17.5520756,35.8694693 C17.7050164,35.4092348 17.8775096,34.575994 18.069555,33.3697469 L18.069555,33.3697469 C18.1094151,33.1193832 18.3253338,32.9351213 18.5788508,32.9351213 Z" id="Rectangle-3"></path>
                            <path d="M32.861689,24.0330846 L32.861689,24.0330846 L32.861689,24.0330846 C33.4918612,24.5771374 34.4411116,24.5185988 34.9996616,23.9012397 L50.3557526,6.92832364 L50.3557526,6.92832364 C51.2956952,5.88941566 51.2154678,4.28524036 50.1765598,3.34529784 C50.124311,3.29802623 50.0701155,3.25295201 50.0141141,3.21019242 L50.0141141,3.21019242 L50.0141141,3.21019242 C48.8156806,2.29513452 47.1023574,2.52485578 46.1872995,3.72328922 C46.1818175,3.73046888 46.1763712,3.7376757 46.1709607,3.74490943 L32.62513,21.8555224 L32.62513,21.8555224 C32.1199864,22.5308934 32.2233032,23.4819407 32.861689,24.0330846 Z" id="Path-3" transform="translate(41.657810, 13.527702) rotate(14.000000) translate(-41.657810, -13.527702) "></path>
                            <path d="M21.6475599,25.9587623 C27.2270681,26.4921223 30.1438967,25.9065641 30.3980458,24.2020879 C30.7792694,21.6453736 26.7831561,20.4923221 25.8505666,21.6453736 C24.917977,22.7984251 25.0230953,24.4374736 23.8422825,25.043427 C23.0550739,25.447396 22.3234997,25.7525077 21.6475599,25.9587623 Z" id="Path-2"></path>
                            <path d="M2.57985258,2.65265054 L2.57985258,29.179156 L44.2256823,29.179156 L44.2256823,2.65265054 L2.57985258,2.65265054 Z M2.06388206,0.0704243507 L44.7416528,0.0704243507 C45.8815034,0.0704243507 46.8055349,0.995305987 46.8055349,2.1362053 L46.8055349,29.6956012 C46.8055349,30.8365005 45.8815034,31.7613822 44.7416528,31.7613822 L2.06388206,31.7613822 C0.924031475,31.7613822 1.84449589e-15,30.8365005 -1.33226763e-15,29.6956012 L-3.14899622e-16,2.1362053 C-1.1536839e-16,0.995305987 0.924031475,0.0704243507 2.06388206,0.0704243507 Z" id="Rectangle-8" fill-rule="nonzero"></path>
                            <path d="M21.4702767,15.8004262 C21.5039605,15.5301332 21.5292217,15.2598394 21.5292217,14.9726536 C21.5292217,14.6854677 21.5039589,14.4151739 21.4702767,14.1448809 L23.2470557,12.7511817 C23.4070504,12.6244821 23.4491535,12.3964218 23.3481054,12.210595 L21.6639552,9.28804927 C21.5629055,9.10222284 21.3355464,9.03464919 21.1502889,9.10222284 L19.053522,9.94688922 C18.6156426,9.60902259 18.144081,9.33028275 17.6304147,9.11911615 L17.3104261,6.88075018 C17.2851632,6.67802983 17.1083274,6.52598983 16.8978087,6.52598983 L13.5295083,6.52598983 C13.3189895,6.52598983 13.1421537,6.67802983 13.1168916,6.88074977 L12.796903,9.11911575 C12.2832375,9.33028235 11.8116751,9.61746904 11.373796,9.94688882 L9.27702881,9.10222244 C9.08335153,9.02620233 8.8644122,9.10222244 8.76336289,9.28804887 L7.07921268,12.2105942 C6.96974283,12.396421 7.02026748,12.6244805 7.1802616,12.7511809 L8.95704018,14.1448809 C8.92335721,14.4151739 8.89809478,14.6939137 8.89809478,14.9726536 C8.89809478,15.2513934 8.92335721,15.5301332 8.95704018,15.8004262 L7.1802618,17.1941254 C7.02026748,17.320825 6.97816377,17.5488854 7.07921268,17.7347122 L8.76336289,20.6572579 C8.86441181,20.8430839 9.09177207,20.9106571 9.27702881,20.8430839 L11.3737956,19.9984175 C11.8116747,20.3362838 12.2832367,20.6150236 12.7969022,20.8261902 L13.1168908,23.0645558 C13.1421529,23.2672755 13.3189887,23.4193157 13.5295074,23.4193157 L16.8978078,23.4193157 C17.1083266,23.4193157 17.2851624,23.2672755 17.3104245,23.0645558 L17.6304131,20.8261902 C18.1440786,20.6150236 18.615641,20.3278369 19.0535204,19.9984175 L21.1502873,20.8430839 C21.3439641,20.9191041 21.5629039,20.8430839 21.6639536,20.6572579 L23.3481038,17.7347122 C23.4491535,17.5488854 23.4070488,17.3208259 23.2470541,17.1941254 L21.470275,15.8004262 L21.4702767,15.8004262 Z M15.2136585,19.0908002 C12.9497608,19.0908002 11.1081455,17.2435177 11.1081455,14.9726536 C11.1081455,12.7017894 12.9497608,10.854507 15.2136585,10.854507 C17.477556,10.854507 19.3191714,12.7017894 19.3191714,14.9726536 C19.3191714,17.2435177 17.477556,19.0908002 15.2136585,19.0908002 Z" id="Fill-2"></path>
                        </g>
                        <ellipse id="Oval-4-Copy-4" stroke="#E55749" stroke-width="3.43462898" cx="57.2727273" cy="57.3254215" rx="55.5554128" ry="55.608107"></ellipse>
                    </g>
                    <g id="launch-icon" filter="url(#filter-6)" transform="translate(305.454545, 152.867791)">
                        <g id="icon_launch-copy" transform="translate(31.818182, 31.847456)" fill="#9E63B5">
                            <path d="M5.49786035,28.3555206 L5.49786035,28.3555206 C5.43413889,28.3361476 5.37361732,28.3074973 5.31824295,28.2704916 C5.00671026,28.0623002 4.92293565,27.6409805 5.13112712,27.3294478 L5.13112711,27.3294478 C7.35462825,24.0022544 9.14171242,21.8665054 10.4923796,20.9222007 C11.9434371,19.9077093 14.6481231,19.0397368 18.6064374,18.3182832 C28.411182,5.77738997 39.0573013,-0.199466865 50.5447953,0.387712659 C51.5991733,9.46014476 46.1187236,19.9046495 34.1034462,31.7212269 C33.8274364,35.3206694 33.1934045,37.9777802 32.2013503,39.6925593 C31.2831869,41.2796172 29.3223323,43.3317032 26.3187866,45.8488172 C26.2580018,45.8997578 26.188756,45.9396462 26.1141945,45.9666707 C25.7619241,46.0943495 25.3728484,45.9122821 25.2451696,45.5600117 L25.2451696,45.5600117 L22.4801389,37.9311944 C20.5680423,38.7244828 18.8997556,38.6367683 17.4752787,37.668051 L14.9040201,40.3779751 C14.6481192,40.6476765 14.2228227,40.6611835 13.950324,40.4082636 L13.950324,40.4082636 L11.8602929,38.4684002 C11.5967457,38.2237887 11.5698144,37.8160439 11.7988995,37.5388944 L11.7988995,37.5388944 L14.0914093,34.7653929 C13.082061,33.9576189 12.7926381,32.6038927 13.2231405,30.7042144 L5.49786035,28.3555206 Z M31.7355372,22.8648405 C33.9264188,22.8648405 35.7024793,21.1099369 35.7024793,18.9451535 C35.7024793,16.7803702 33.9264188,15.0254666 31.7355372,15.0254666 C29.5446555,15.0254666 27.768595,16.7803702 27.768595,18.9451535 C27.768595,21.1099369 29.5446555,22.8648405 31.7355372,22.8648405 Z M40.3305785,13.0656231 C41.7911663,13.0656231 42.9752066,11.8956874 42.9752066,10.4524985 C42.9752066,9.00930962 41.7911663,7.83937388 40.3305785,7.83937388 C38.8699907,7.83937388 37.6859504,9.00930962 37.6859504,10.4524985 C37.6859504,11.8956874 38.8699907,13.0656231 40.3305785,13.0656231 Z" id="Combined-Shape"></path>
                            <path d="M8.93191231,41.5920661 L3.3120776,47.7982371 C2.82512139,48.3359991 2.87156328,49.1619949 3.41580845,49.6431504 C3.96005362,50.1243058 4.79600751,50.0784172 5.28296372,49.5406552 L10.9027984,43.3344842 C11.3897546,42.7967222 11.3433128,41.9707264 10.7990676,41.489571 C10.2548224,41.0084155 9.41886852,41.0543041 8.93191231,41.5920661 Z" id="Line" fill-rule="nonzero"></path>
                            <path d="M6.28728421,35.0592546 L0.667449503,41.2654256 C0.180493295,41.8031875 0.226935178,42.6291833 0.771180351,43.1103388 C1.31542552,43.5914943 2.15137941,43.5456056 2.63833562,43.0078436 L8.25817033,36.8016726 C8.74512654,36.2639106 8.69868466,35.4379149 8.15443948,34.9567594 C7.61019431,34.4756039 6.77424042,34.5214926 6.28728421,35.0592546 Z" id="Line-Copy-4" fill-rule="nonzero"></path>
                            <path d="M17.5269536,42.2453473 L11.9071189,48.4515183 C11.4201627,48.9892803 11.4666046,49.8152761 12.0108498,50.2964315 C12.5550949,50.777587 13.3910488,50.7316983 13.878005,50.1939363 L19.4978398,43.9877654 C19.984796,43.4500034 19.9383541,42.6240076 19.3941089,42.1428521 C18.8498637,41.6616966 18.0139098,41.7075853 17.5269536,42.2453473 Z" id="Line-Copy-5" fill-rule="nonzero"></path>
                        </g>
                        <ellipse id="Oval-4-Copy-5" stroke="#9E63B5" stroke-width="3.43462898" cx="57.2727273" cy="57.3254215" rx="55.5554128" ry="55.608107"></ellipse>
                    </g>
                </g>
                <text id="This-app-will-guide" font-family="NunitoSans-Regular, Nunito Sans" font-size="32" font-weight="normal" line-spacing="50" letter-spacing="0.888888896">
                    <tspan x="542" y="58" fill="#FFFFFF">This app will guide you </tspan>
                    <tspan x="542" y="108" fill="#FFFFFF">through six phases:</tspan>
                    <tspan x="542" y="158" letter-spacing="0.836601317" fill="#3ED17F">Discover</tspan>
                    <tspan x="671.764811" y="158" letter-spacing="0.836601317" fill="#FFFFFF">, </tspan>
                    <tspan x="689.022013" y="158" letter-spacing="0.836601317" fill="#2BC3A6">Research</tspan>
                    <tspan x="828.194824" y="158" letter-spacing="0.836601317" fill="#FFFFFF">, </tspan>
                    <tspan x="845.452026" y="158" letter-spacing="0.836601317" fill="#F0C830">Define</tspan>
                    <tspan x="943.043033" y="158" letter-spacing="0.836601317" fill="#FFFFFF">, </tspan>
                    <tspan x="542" y="208" letter-spacing="0.836601317" fill="#E28633">Design</tspan>
                    <tspan x="647.243608" y="208" letter-spacing="0.836601317" fill="#FFFFFF">, </tspan>
                    <tspan x="664.500811" y="208" letter-spacing="0.836601317" fill="#E55749">Production</tspan>
                    <tspan x="828.098824" y="208" letter-spacing="0.836601317" fill="#FFFFFF">, </tspan>
                    <tspan x="845.356026" y="208" letter-spacing="0.836601317" fill="#9E63B5">Launch</tspan>
                </text>
            </g>
        </g>
    </g>
</svg>