<?xml version="1.0" encoding="UTF-8"?>
<svg width="62px" height="68px" viewBox="0 0 62 68" version="1.1" xmlns="http://www.w3.org/2000/svg" xmlns:xlink="http://www.w3.org/1999/xlink">
    <!-- Generator: Sketch 44.1 (41455) - http://www.bohemiancoding.com/sketch -->
    <title>Group 7</title>
    <desc>Created with Sketch.</desc>
    <defs>
        <filter x="-4.4%" y="-2.1%" width="109.7%" height="109.7%" filterUnits="objectBoundingBox" id="filter-1">
            <feOffset dx="0" dy="1" in="SourceAlpha" result="shadowOffsetOuter1"></feOffset>
            <feGaussianBlur stdDeviation="0.5" in="shadowOffsetOuter1" result="shadowBlurOuter1"></feGaussianBlur>
            <feColorMatrix values="0 0 0 0 0   0 0 0 0 0   0 0 0 0 0  0 0 0 0.191944067 0" type="matrix" in="shadowBlurOuter1" result="shadowMatrixOuter1"></feColorMatrix>
            <feMerge>
                <feMergeNode in="shadowMatrixOuter1"></feMergeNode>
                <feMergeNode in="SourceGraphic"></feMergeNode>
            </feMerge>
        </filter>
        <linearGradient x1="44.8073%" y1="-3.69026469%" x2="44.8072993%" y2="98.3922388%" id="linearGradient-2">
            <stop stop-color="#FFFFFF" offset="0%"></stop>
            <stop stop-color="#F0F0F0" offset="100%"></stop>
        </linearGradient>
        <path d="M0.969481145,65.0598128 C0.373918818,64.477157 0.0761421214,63.6255959 0.0761421214,62.505104 L0.0761421214,57.9335198 L2.09879651,57.9335198 L2.09879651,62.583538 C2.09879651,63.1512539 2.22614755,63.5882392 2.48085345,63.894507 C2.73555936,64.2007748 3.10263,64.3539064 3.5820764,64.3539064 C4.0615228,64.3539064 4.42859345,64.2007748 4.68329935,63.894507 C4.93800525,63.5882392 5.06535629,63.1512539 5.06535629,62.583538 L5.06535629,57.9335198 L7.09924765,57.9335198 L7.09924765,62.505104 C7.09924765,63.6181259 6.79772534,64.4678196 6.19467166,65.0542103 C5.59161798,65.6406011 4.7207616,65.9337921 3.5820764,65.9337921 C2.43589985,65.9337921 1.56504347,65.6424686 0.969481145,65.0598128 Z M13.052344,61.844017 L16.0863256,65.8329483 L13.6703773,65.8329483 L11.8836993,63.3454687 L10.0857843,65.8329483 L7.69230991,65.8329483 L10.7150545,61.844017 L7.74849475,57.9335198 L10.1532061,57.9335198 L11.8836993,60.3537702 L13.6366664,57.9335198 L16.0301408,57.9335198 L13.052344,61.844017 Z M26.0091934,62.4546821 C26.2601537,62.7870947 26.3856319,63.199803 26.3856319,63.6928195 C26.3856319,64.3875244 26.1590219,64.9178827 25.7057953,65.28391 C25.2525686,65.6499374 24.610195,65.8329483 23.7786551,65.8329483 L20.6098299,65.8329483 L20.6098299,57.9335198 L23.6662854,57.9335198 C24.4753512,57.9335198 25.1008696,58.1127958 25.5428592,58.4713532 C25.9848489,58.8299106 26.2058404,59.3415942 26.2058404,60.0064195 C26.2058404,60.4322064 26.0953446,60.7982283 25.8743498,61.104496 C25.653355,61.4107638 25.3443414,61.6385938 24.9472999,61.7879927 C25.4042722,61.9000419 25.7582332,62.1222695 26.0091934,62.4546821 Z M21.295285,61.519076 L23.5651527,61.519076 C24.2019175,61.519076 24.6851023,61.3883539 25.0147217,61.1269058 C25.3443411,60.8654577 25.5091483,60.488231 25.5091483,59.9952146 C25.5091483,59.0166516 24.8611563,58.5273775 23.5651527,58.5273775 L21.295285,58.5273775 L21.295285,61.519076 Z M25.2113686,64.8637277 C25.529751,64.6134845 25.6889398,64.2306555 25.6889398,63.7152292 C25.6889398,62.6544968 25.0372021,62.1241386 23.7337072,62.1241386 L21.295285,62.1241386 L21.295285,65.2390906 L23.7337072,65.2390906 C24.4004374,65.2390906 24.8929863,65.1139709 25.2113686,64.8637277 Z M34.4175675,65.8329483 L33.507373,63.726434 L29.2373249,63.726434 L28.3271304,65.8329483 L27.6192014,65.8329483 L31.0577138,57.9335198 L31.6869841,57.9335198 L35.1254966,65.8329483 L34.4175675,65.8329483 Z M29.4957752,63.1213714 L33.2489228,63.1213714 L31.372349,58.7514748 L29.4957752,63.1213714 Z M37.5052369,65.6704778 C37.0257905,65.502404 36.5987899,65.2428273 36.2242224,64.8917398 L36.5163836,64.3427015 C36.9134251,64.693789 37.3123335,64.942161 37.7131208,65.0878249 C38.113908,65.2334889 38.59522,65.3063198 39.1570713,65.3063198 C39.8238014,65.3063198 40.3425696,65.1699953 40.7133915,64.8973422 C41.0842133,64.6246892 41.2696214,64.2418602 41.2696214,63.7488438 C41.2696214,63.4575159 41.1797266,63.2203486 40.9999342,63.037335 C40.8201418,62.8543213 40.591659,62.7123944 40.3144791,62.6115502 C40.0372991,62.5107059 39.6664828,62.4079957 39.2020191,62.3034164 C38.5877284,62.1689574 38.091434,62.0307655 37.7131208,61.8888365 C37.3348076,61.7469075 37.0145572,61.5321498 36.7523599,61.2445568 C36.4901627,60.9569639 36.359066,60.5704 36.359066,60.0848535 C36.359066,59.6366567 36.4751802,59.2444904 36.7074121,58.9083429 C36.9396439,58.5721953 37.2673856,58.3107511 37.6906468,58.1240024 C38.1139081,57.9372538 38.6102026,57.8438809 39.1795452,57.8438809 C39.7189224,57.8438809 40.2189625,57.9316514 40.6796806,58.1071951 C41.1403986,58.2827389 41.539307,58.5385807 41.8764177,58.8747283 L41.5842565,59.4237666 C41.209689,59.087619 40.8313815,58.8429819 40.4493227,58.689848 C40.0672638,58.5367141 39.6440089,58.4601483 39.1795452,58.4601483 C38.5128151,58.4601483 37.992174,58.6020752 37.6176065,58.8859331 C37.243039,59.1697911 37.0557581,59.5656923 37.0557581,60.0736486 C37.0557581,60.5143755 37.2186925,60.8411807 37.5445662,61.0540742 C37.87044,61.2669676 38.3480064,61.4481111 38.9772798,61.59751 L39.269441,61.6647392 C39.8762403,61.8141381 40.3556795,61.9523301 40.707773,62.0793191 C41.0598664,62.2063082 41.3576431,62.4023914 41.601112,62.6675745 C41.8445809,62.9327576 41.9663135,63.2894421 41.9663135,63.7376389 C41.9663135,64.1708958 41.8501993,64.5518573 41.6179675,64.880535 C41.3857356,65.2092126 41.057994,65.4650544 40.6347327,65.6480681 C40.2114714,65.8310818 39.7189225,65.9225872 39.1570713,65.9225872 C38.5352892,65.9225872 37.9846833,65.8385516 37.5052369,65.6704778 Z M43.8291532,65.8329483 L43.8291532,57.9335198 L44.5258453,57.9335198 L44.5258453,65.8329483 L43.8291532,65.8329483 Z M48.2652588,65.4351757 C47.7258816,65.110233 47.3101179,64.6433684 47.0179553,64.0345678 C46.7257926,63.4257672 46.5797135,62.7067956 46.5797135,61.8776316 C46.5797135,61.0484676 46.7257926,60.3294961 47.0179553,59.7206954 C47.3101179,59.1118948 47.7258816,58.6468977 48.2652588,58.32569 C48.804636,58.0044823 49.4413912,57.8438809 50.1755435,57.8438809 C50.7224121,57.8438809 51.224325,57.9297839 51.6812974,58.1015927 C52.1382697,58.2734015 52.5353053,58.5311107 52.872416,58.8747283 L52.5802549,59.4237666 C52.2056874,59.080149 51.8292527,58.8336445 51.4509395,58.6842456 C51.0726263,58.5348467 50.6512442,58.4601483 50.1867805,58.4601483 C49.2728358,58.4601483 48.563041,58.7589417 48.0573749,59.3565374 C47.5517088,59.9541331 47.2988795,60.7944894 47.2988795,61.8776316 C47.2988795,62.9682438 47.549836,63.812335 48.0517564,64.4099307 C48.5536769,65.0075264 49.2653444,65.3063198 50.1867805,65.3063198 C50.6512442,65.3063198 51.0726263,65.2316214 51.4509395,65.0822225 C51.8292527,64.9328236 52.2056874,64.686319 52.5802549,64.3427015 L52.872416,64.8917398 C52.5353053,65.2353573 52.1382697,65.4930666 51.6812974,65.6648754 C51.224325,65.8366841 50.7224121,65.9225872 50.1755435,65.9225872 C49.4413912,65.9225872 48.804636,65.7601183 48.2652588,65.4351757 Z M55.4993697,65.6704778 C55.0199233,65.502404 54.5929227,65.2428273 54.2183552,64.8917398 L54.5105164,64.3427015 C54.907558,64.693789 55.3064664,64.942161 55.7072536,65.0878249 C56.1080408,65.2334889 56.5893528,65.3063198 57.1512041,65.3063198 C57.8179342,65.3063198 58.3367024,65.1699953 58.7075243,64.8973422 C59.0783461,64.6246892 59.2637542,64.2418602 59.2637542,63.7488438 C59.2637542,63.4575159 59.1738594,63.2203486 58.994067,63.037335 C58.8142746,62.8543213 58.5857918,62.7123944 58.3086119,62.6115502 C58.0314319,62.5107059 57.6606157,62.4079957 57.196152,62.3034164 C56.5818613,62.1689574 56.0855668,62.0307655 55.7072536,61.8888365 C55.3289404,61.7469075 55.00869,61.5321498 54.7464928,61.2445568 C54.4842955,60.9569639 54.3531988,60.5704 54.3531988,60.0848535 C54.3531988,59.6366567 54.469313,59.2444904 54.7015449,58.9083429 C54.9337767,58.5721953 55.2615184,58.3107511 55.6847797,58.1240024 C56.1080409,57.9372538 56.6043354,57.8438809 57.173678,57.8438809 C57.7130552,57.8438809 58.2130953,57.9316514 58.6738134,58.1071951 C59.1345314,58.2827389 59.5334398,58.5385807 59.8705505,58.8747283 L59.5783894,59.4237666 C59.2038219,59.087619 58.8255144,58.8429819 58.4434555,58.689848 C58.0613967,58.5367141 57.6381417,58.4601483 57.173678,58.4601483 C56.5069479,58.4601483 55.9863069,58.6020752 55.6117394,58.8859331 C55.2371719,59.1697911 55.0498909,59.5656923 55.0498909,60.0736486 C55.0498909,60.5143755 55.2128253,60.8411807 55.5386991,61.0540742 C55.8645728,61.2669676 56.3421392,61.4481111 56.9714126,61.59751 L57.2635738,61.6647392 C57.8703731,61.8141381 58.3498123,61.9523301 58.7019058,62.0793191 C59.0539992,62.2063082 59.3517759,62.4023914 59.5952448,62.6675745 C59.8387137,62.9327576 59.9604463,63.2894421 59.9604463,63.7376389 C59.9604463,64.1708958 59.8443321,64.5518573 59.6121003,64.880535 C59.3798684,65.2092126 59.0521268,65.4650544 58.6288655,65.6480681 C58.2056042,65.8310818 57.7130553,65.9225872 57.1512041,65.9225872 C56.529422,65.9225872 55.9788161,65.8385516 55.4993697,65.6704778 Z" id="path-3"></path>
        <filter x="-3.3%" y="-12.4%" width="106.7%" height="149.4%" filterUnits="objectBoundingBox" id="filter-4">
            <feOffset dx="0" dy="1" in="SourceAlpha" result="shadowOffsetOuter1"></feOffset>
            <feGaussianBlur stdDeviation="0.5" in="shadowOffsetOuter1" result="shadowBlurOuter1"></feGaussianBlur>
            <feColorMatrix values="0 0 0 0 0   0 0 0 0 0   0 0 0 0 0  0 0 0 0.273890399 0" type="matrix" in="shadowBlurOuter1"></feColorMatrix>
        </filter>
    </defs>
    <g id="Page-1" stroke="none" stroke-width="1" fill="none" fill-rule="evenodd">
        <g id="Desktop-HD" transform="translate(-689.000000, -12.000000)">
            <g id="Group-7" transform="translate(690.000000, 12.000000)">
                <g id="icon_launch-copy" filter="url(#filter-1)" transform="translate(7.134670, 0.000000)">
                    <path d="M3.66809721,31.3851235 C3.62078485,31.3708031 3.57586829,31.3495181 3.53482483,31.3219687 C3.30646392,31.1686871 3.24560009,30.8593048 3.39888166,30.6309439 L3.39888165,30.6309439 C5.0452334,28.1781873 6.36841821,26.6037833 7.3684361,25.9077318 C8.4426189,25.1600587 10.4448325,24.520369 13.3750769,23.9886627 C20.6332922,14.7461119 28.5143568,10.34121 37.0182708,10.7739572 C37.7988014,17.4602765 33.741757,25.1578036 24.8471377,33.8665388 C24.6428144,36.5193028 24.1734558,38.4775749 23.4390621,39.7413552 C22.7587772,40.9120223 21.305271,42.4260079 19.0785435,44.2833119 C19.0343212,44.3201975 18.9840363,44.3491336 18.9299246,44.3688335 C18.6714842,44.4629213 18.3857036,44.3296872 18.2916158,44.0712468 L18.2916158,44.0712468 L16.2426844,38.4432416 C14.8272055,39.0278896 13.5922132,38.9632446 12.5377074,38.2493067 L10.6306668,40.2502792 C10.4429844,40.447206 10.1320031,40.4570819 9.93220379,40.2724604 L9.93220379,40.2724604 L8.38036585,38.8385085 C8.18589767,38.6588132 8.16604808,38.3583607 8.33518587,38.1546435 L8.33518587,38.1546435 L10.0327107,36.1100679 C9.28551462,35.5147441 9.07126182,34.5170573 9.38995234,33.1170076 L3.66809721,31.3851235 Z M23.253795,27.1787234 C24.9087301,27.1787234 26.2503201,25.9245764 26.2503201,24.3775076 C26.2503201,22.8304388 24.9087301,21.5762918 23.253795,21.5762918 C21.59886,21.5762918 20.25727,22.8304388 20.25727,24.3775076 C20.25727,25.9245764 21.59886,27.1787234 23.253795,27.1787234 Z M29.2468451,20.08231 C30.2811795,20.08231 31.1196732,19.246212 31.1196732,18.2148328 C31.1196732,17.1834536 30.2811795,16.3473556 29.2468451,16.3473556 C28.2125107,16.3473556 27.3740169,17.1834536 27.3740169,18.2148328 C27.3740169,19.246212 28.2125107,20.08231 29.2468451,20.08231 Z" id="Combined-Shape" fill="url(#linearGradient-2)"></path>
                    <path d="M6.22310926,40.9379985 L2.14784771,45.406098 C1.79472808,45.7932568 1.82840573,46.3879281 2.22306884,46.7343334 C2.61773195,47.0807387 3.22392962,47.0477014 3.57704925,46.6605425 L7.6523108,42.1924431 C8.00543043,41.8052842 7.97175278,41.210613 7.57708967,40.8642077 C7.18242656,40.5178024 6.57622888,40.5508397 6.22310926,40.9379985 Z" id="Line" fill="#9E63B5" fill-rule="nonzero"></path>
                    <path d="M4.31955503,36.0562964 L0.244293477,40.5243959 C-0.108826145,40.9115547 -0.0751484967,41.5062259 0.319514611,41.8526312 C0.714177719,42.1990365 1.3203754,42.1659992 1.67349502,41.7788404 L5.74875657,37.3107409 C6.1018762,36.9235821 6.06819855,36.3289108 5.67353544,35.9825055 C5.27887233,35.6361003 4.67267466,35.6691375 4.31955503,36.0562964 Z" id="Line-Copy-4" fill="#E55749" fill-rule="nonzero"></path>
                    <path d="M9.56310804,11.027725 L5.48784649,15.4958244 C5.13472686,15.8829833 5.16840451,16.4776545 5.56306762,16.8240598 C5.95773073,17.1704651 6.5639284,17.1374278 6.91704803,16.750269 L10.9923096,12.2821695 C11.3454292,11.8950106 11.3117516,11.3003394 10.9170884,10.9539341 C10.5224253,10.6075288 9.91622766,10.6405661 9.56310804,11.027725 Z" id="Line-Copy-6" fill="#3ED17F" fill-rule="nonzero"></path>
                    <path d="M12.571704,41.2848678 L8.49644247,45.7529673 C8.14332285,46.1401261 8.1770005,46.7347974 8.57166361,47.0812027 C8.96632672,47.427608 9.57252439,47.3945707 9.92564402,47.0074118 L14.0009056,42.5393124 C14.3540252,42.1521535 14.3203475,41.5574823 13.9256844,41.211077 C13.5310213,40.8646717 12.9248237,40.897709 12.571704,41.2848678 Z" id="Line-Copy-5" fill="#2BC3A6" fill-rule="nonzero"></path>
                    <path d="M43.8611023,27.827725 L39.7858408,32.2958244 C39.4327211,32.6829833 39.4663988,33.2776545 39.8610619,33.6240598 C40.255725,33.9704651 40.8619227,33.9374278 41.2150423,33.550269 L45.2903039,29.0821695 C45.6434235,28.6950106 45.6097458,28.1003394 45.2150827,27.7539341 C44.8204196,27.4075288 44.2142219,27.4405661 43.8611023,27.827725 Z" id="Line-Copy-7" fill="#F0C830" fill-rule="nonzero"></path>
                    <path d="M35.4370335,0.313439256 L31.361772,4.78153871 C31.0086524,5.16869757 31.04233,5.7633688 31.4369931,6.10977409 C31.8316562,6.45617938 32.4378539,6.42314209 32.7909735,6.03598324 L36.8662351,1.56788378 C37.2193547,1.18072493 37.1856771,0.586053692 36.791014,0.239648401 C36.3963508,-0.106756889 35.7901532,-0.0737195986 35.4370335,0.313439256 Z" id="Line-Copy-8" fill="#E55749" fill-rule="nonzero"></path>
                </g>
                <g id="UX-BASICS">
                    <use fill="black" fill-opacity="1" filter="url(#filter-4)" xlink:href="#path-3"></use>
                    <use fill="#FFFFFF" fill-rule="evenodd" xlink:href="#path-3"></use>
                </g>
            </g>
        </g>
    </g>
</svg>